<?xml version="1.0" encoding="UTF-8"?>
<svg id="Layer_2" data-name="Layer 2" xmlns="http://www.w3.org/2000/svg" viewBox="0 0 432 639">
  <defs>
    <style>
      .cls-1 {
        fill: #fff;
      }

      .cls-2 {
        fill: #e9e6dd;
      }
    </style>
  </defs>
  <g id="Layer_1-2" data-name="Layer 1">
    <g>
      <path class="cls-2" d="M.5,309.32V.5H18.95C58.37,.5,90.45,32.57,90.45,72v237.32H.5Z"/>
      <path class="cls-1" d="M18.95,1c39.15,0,71,31.85,71,71v236.82H1V1H18.95m0-1H0V309.82H90.95V72C90.95,32.24,58.71,0,18.95,0h0Z"/>
    </g>
    <g>
      <path class="cls-2" d="M102.82,309.32V72C102.82,32.57,134.89,.5,174.32,.5h18.45V309.32H102.82Z"/>
      <path class="cls-1" d="M192.26,1V308.82H103.32V72C103.32,32.85,135.17,1,174.32,1h17.95m1-1h-18.95c-39.76,0-72,32.24-72,72v237.82h90.95V0h0Z"/>
    </g>
    <g>
      <path class="cls-2" d="M72,638.5c-39.43,0-71.5-32.08-71.5-71.5v-237.32H90.45v308.82h-18.45Z"/>
      <path class="cls-1" d="M89.95,330.18v307.82h-17.95c-39.15,0-71-31.85-71-71v-236.82H89.95m1-1H0v237.82c0,39.76,32.24,72,72,72h18.95V329.18h0Z"/>
    </g>
    <g>
      <path class="cls-2" d="M102.82,638.5V329.68h89.95v237.32c0,39.42-32.07,71.5-71.5,71.5h-18.45Z"/>
      <path class="cls-1" d="M192.26,330.18v236.82c0,39.15-31.85,71-71,71h-17.95V330.18h88.95m1-1H102.32v309.82h18.95c39.76,0,72-32.24,72-72v-237.82h0Z"/>
    </g>
    <g>
      <rect class="cls-2" x="239.24" y=".5" width="89.95" height="308.82"/>
      <path class="cls-1" d="M328.68,1V308.82h-88.95V1h88.95m1-1h-90.95V309.82h90.95V0h0Z"/>
    </g>
    <g>
      <path class="cls-2" d="M341.55,309.32V.5h18.45c39.42,0,71.5,32.07,71.5,71.5v237.32h-89.95Z"/>
      <path class="cls-1" d="M360,1c39.15,0,71,31.85,71,71v236.82h-88.95V1h17.95m0-1h-18.95V309.82h90.95V72C432,32.24,399.76,0,360,0h0Z"/>
    </g>
    <g>
      <rect class="cls-2" x="239.24" y="329.68" width="89.95" height="308.82"/>
      <path class="cls-1" d="M328.68,330.18v307.82h-88.95V330.18h88.95m1-1h-90.95v309.82h90.95V329.18h0Z"/>
    </g>
    <g>
      <path class="cls-2" d="M341.55,638.5V329.68h89.95v237.32c0,39.42-32.08,71.5-71.5,71.5h-18.45Z"/>
      <path class="cls-1" d="M431,330.18v236.82c0,39.15-31.85,71-71,71h-17.95V330.18h88.95m1-1h-90.95v309.82h18.95c39.76,0,72-32.24,72-72v-237.82h0Z"/>
    </g>
  </g>
</svg>