<?xml version="1.0" encoding="UTF-8"?>
<svg id="Layer_2" data-name="Layer 2" xmlns="http://www.w3.org/2000/svg" viewBox="0 0 432 639">
  <defs>
    <style>
      .cls-1 {
        fill: #e9e6dd;
      }
    </style>
  </defs>
  <g id="Layer_1-2" data-name="Layer 1">
    <path class="cls-1" d="M288,288h-72V108C216,48.35,264.35,0,324,0h0c59.65,0,108,48.35,108,108v180h-72V108c0-19.88-16.12-36-36-36h0c-19.88,0-36,16.12-36,36v180Z"/>
    <path class="cls-1" d="M288,423h-72v-144h72c79.53,0,144,64.47,144,144h0c0,79.53-64.47,144-144,144h-72v-144h72v63h4.5c37.28,0,67.5-30.22,67.5-67.5h0c0-37.28-30.22-67.5-67.5-67.5h-4.5v72Z"/>
    <path class="cls-1" d="M72,351H0v180C0,590.65,48.35,639,108,639h0c59.65,0,108-48.35,108-108v-180h-72v180c0,19.88-16.12,36-36,36h0c-19.88,0-36-16.12-36-36v-180Z"/>
    <path class="cls-1" d="M144,207h72V63h-72C64.47,63,0,127.47,0,207H0c0,79.53,64.47,144,144,144h72V207h-72v63s-4.5,0-4.5,0c-37.28,0-67.5-30.22-67.5-67.5h0c0-37.28,30.22-67.5,67.5-67.5h4.5s0,72,0,72Z"/>
  </g>
</svg>