<?xml version="1.0" encoding="UTF-8"?>
<svg id="Layer_2" data-name="Layer 2" xmlns="http://www.w3.org/2000/svg" viewBox="0 0 432 639">
  <defs>
    <style>
      .cls-1 {
        fill: #e9e6dd;
      }
    </style>
  </defs>
  <g id="Layer_1-2" data-name="Layer 1">
    <path class="cls-1" d="M288,273.86h-72v182.57h72c79.53,0,144-81.74,144-182.57h0c0-100.83-64.47-182.57-144-182.57h-72v182.57h72v-79.87h4.5c37.28,0,67.5,38.32,67.5,85.58h0c0,47.26-30.22,85.58-67.5,85.58h-4.5v-91.29Z"/>
    <path class="cls-1" d="M144,273.86h72v182.57h-72C64.47,456.43,0,374.69,0,273.86H0C0,173.03,64.47,91.29,144,91.29h72v182.57h-72v-79.88s-4.5,0-4.5,0c-37.28,0-67.5,38.32-67.5,85.58h0c0,47.26,30.22,85.58,67.5,85.58h4.5s0-91.29,0-91.29Z"/>
    <path class="cls-1" d="M216,182.57v91.29s144,0,144,0v-91.29C360,81.74,295.53,0,216,0h0C136.47,0,72,81.74,72,182.57v91.29s144,0,144,0v-91.29s-63,0-63,0v-5.71c0-47.26,30.22-85.58,67.5-85.58h0c37.28,0,67.5,38.32,67.5,85.58v5.71h-72Z"/>
    <path class="cls-1" d="M216,456.43v-91.29s144,0,144,0v91.29c0,100.83-64.47,182.57-144,182.57h0c-79.53,0-144-81.74-144-182.57v-91.29s144,0,144,0v91.29s-63,0-63,0v5.71c0,47.26,30.22,85.58,67.5,85.58h0c37.28,0,67.5-38.32,67.5-85.58v-5.71h-72Z"/>
  </g>
</svg>