<?xml version="1.0" encoding="UTF-8"?>
<svg id="Layer_2" data-name="Layer 2" xmlns="http://www.w3.org/2000/svg" viewBox="0 0 432 639">
  <defs>
    <style>
      .cls-1 {
        fill: #e9e6dd;
      }
    </style>
  </defs>
  <g id="Layer_1-2" data-name="Layer 1">
    <path class="cls-1" d="M246.86,215.24v107.62H92.57C41.45,322.86,0,250.59,0,161.43H0C0,72.28,41.45,0,92.57,0H246.86V107.62H92.57c-17.04,0-30.86,24.09-30.86,53.81h0c0,29.72,13.82,53.81,30.86,53.81H246.86Z"/>
    <path class="cls-1" d="M131.14,531.38v107.62H7.71v-107.62c0-118.87,55.26-215.24,123.43-215.24h0c68.17,0,123.43,96.37,123.43,215.24v107.62h-123.43v-107.62h54s0-6.73,0-6.73c0-55.72-25.9-100.89-57.86-100.89h0c-31.95,0-57.86,45.17-57.86,100.89v6.73s61.71,0,61.71,0Z"/>
    <path class="cls-1" d="M308.57,395.68h-61.71v182.57h61.71c68.17,0,123.43-81.74,123.43-182.57h0c0-100.83-55.26-182.57-123.43-182.57h-61.71v182.57h61.71v-79.87h3.86c31.95,0,57.86,38.32,57.86,85.58h0c0,47.26-25.9,85.58-57.86,85.58h-3.86v-91.29Z"/>
  </g>
</svg>