<?xml version="1.0" encoding="UTF-8"?>
<svg id="Layer_2" data-name="Layer 2" xmlns="http://www.w3.org/2000/svg" viewBox="0 0 575.48 335.83">
  <defs>
    <style>
      .cls-1 {
        fill: #e9e6dd;
      }
    </style>
  </defs>
  <g id="Layer_1-2" data-name="Layer 1">
    <g>
      <path class="cls-1" d="M112.41,128.16h-26.86l-13.83-53.72-8.29,26.11v27.61h-23.14V0h23.14V49.48L85.48,0h22.06l-20.2,43.79,25.06,84.37Z"/>
      <path class="cls-1" d="M163.07,128.16l-4.52-23.58h-21.43l-4.8,23.58h-19.93L137.09,0h25.96l25.08,128.16h-25.05Zm-21.77-58.21h12.94l-6.47-34.71-6.47,34.71Z"/>
      <path class="cls-1" d="M258.54,0V79.24c0,15.02-2.98,34.32-8.94,40.89-5.96,6.57-13.72,9.86-23.29,9.86-10.08,0-18.17-3.16-24.29-9.47-6.11-6.31-9.17-25.1-9.17-39.36V0h24.96V76.88c0,5.73,.81,18.41,2.42,21.04s4.2,3.94,7.74,3.94c2.96,0,5.38-.95,7.27-2.85,1.89-1.9,3.02-4.05,3.39-6.44,.37-2.4,.56-15.58,.56-22.53V0h19.34Z"/>
      <path class="cls-1" d="M304.54,28.66v99.49h-23.26V28.66h-16.58V0h56.43V28.66h-16.58Z"/>
      <path class="cls-1" d="M395.94,0V128.16h-24.55v-55.05h-18.75v55.05h-24.55V0h24.55V44h18.75V0h24.55Z"/>
      <path class="cls-1" d="M453.93,128.16l-4.52-23.58h-21.43l-4.8,23.58h-19.93L427.94,0h25.96l25.08,128.16h-25.05Zm-21.77-58.21h12.94l-6.47-34.71-6.47,34.71Z"/>
      <path class="cls-1" d="M557.55,128.16h-27.22l-11.68-54.26h-7.74v54.26h-24.55V0h41.78c9.22,0,16.38,3.23,21.47,9.69,5.1,6.46,7.65,14.98,7.65,25.55,0,6.9-.94,12.99-2.81,18.28-1.88,5.29-5.66,9.95-11.37,13.98l14.47,60.66Zm-46.64-79.86h10.49c3.08,0,5.57-.96,7.44-2.89s2.81-4.76,2.81-8.5c0-7.65-3.14-11.48-9.43-11.48h-11.31v22.88Z"/>
      <path class="cls-1" d="M63.35,333.56l-5.65-29.11H30.92l-6,29.11H0L30.86,185.83H63.31l31.36,147.73h-31.32Zm-27.22-61.36h16.18l-8.09-42.85-8.09,42.85Z"/>
      <path class="cls-1" d="M103.88,333.56V185.83h38.67c16.8,0,29.37,7.36,37.72,22.08s12.52,31.75,12.52,51.08c0,22.08-4.48,40.03-13.44,53.84-8.96,13.82-20.59,20.72-34.9,20.72h-40.58Zm30.69-33.98h7.98c5.08,0,9.36-3.64,12.85-10.93,3.49-7.29,5.24-17.21,5.24-29.76,0-10.75-1.55-20.02-4.65-27.81-3.1-7.79-7.58-11.69-13.44-11.69h-7.98v80.19Z"/>
      <path class="cls-1" d="M280.98,298.27v35.28h-75.22V185.83h75.22v34.09h-45.12v21.43h36.47v32.79h-36.47v24.13h45.12Z"/>
      <path class="cls-1" d="M293.13,333.56V185.83h38.67c16.8,0,29.37,7.36,37.72,22.08s12.52,31.75,12.52,51.08c0,22.08-4.48,40.03-13.44,53.84-8.96,13.82-20.59,20.72-34.9,20.72h-40.58Zm30.69-33.98h7.98c5.08,0,9.36-3.64,12.85-10.93,3.49-7.29,5.24-17.21,5.24-29.76,0-10.75-1.55-20.02-4.65-27.81-3.1-7.79-7.58-11.69-13.44-11.69h-7.98v80.19Z"/>
      <path class="cls-1" d="M470.23,298.27v35.28h-75.22V185.83h75.22v34.09h-45.12v21.43h36.47v32.79h-36.47v24.13h45.12Z"/>
      <path class="cls-1" d="M528.39,185.83v93.07c0,14.29-.87,25.16-2.6,32.63-1.73,7.47-5.12,13.38-10.14,17.75-5.03,4.36-11.84,6.55-20.43,6.55-7.57,0-14.4-1.19-20.51-3.57v-35.28c4.3,1.8,8.3,2.71,12.01,2.71,4.39,0,7.52-1.5,9.38-4.49,1.86-2.99,2.78-8.42,2.78-16.29v-93.07h29.52Z"/>
      <path class="cls-1" d="M575.48,185.83v147.73h-30.69V185.83h30.69Z"/>
    </g>
  </g>
</svg>